<?xml version="1.0" encoding="UTF-8" standalone="no"?>
<!-- Created with Inkscape (http://www.inkscape.org/) -->

<svg
   xmlns:dc="http://purl.org/dc/elements/1.1/"
   xmlns:cc="http://creativecommons.org/ns#"
   xmlns:rdf="http://www.w3.org/1999/02/22-rdf-syntax-ns#"
   xmlns:svg="http://www.w3.org/2000/svg"
   xmlns="http://www.w3.org/2000/svg"
   xmlns:sodipodi="http://sodipodi.sourceforge.net/DTD/sodipodi-0.dtd"
   xmlns:inkscape="http://www.inkscape.org/namespaces/inkscape"
   width="559.57751"
   height="239.6575"
   id="svg2"
   version="1.1"
   inkscape:version="0.48.2 r9819"
   sodipodi:docname="New document 1">
  <defs
     id="defs4">
    <clipPath
       id="clipPath2999"
       clipPathUnits="userSpaceOnUse">
      <path
         id="path3001"
         d="m 0,260.787 515.905,0 L 515.905,0 0,0 0,260.787 z"
         inkscape:connector-curvature="0" />
    </clipPath>
  </defs>
  <sodipodi:namedview
     id="base"
     pagecolor="#ffffff"
     bordercolor="#666666"
     borderopacity="1.0"
     inkscape:pageopacity="0.0"
     inkscape:pageshadow="2"
     inkscape:zoom="1.4"
     inkscape:cx="286.05221"
     inkscape:cy="83.208007"
     inkscape:document-units="px"
     inkscape:current-layer="layer1"
     showgrid="false"
     fit-margin-top="0"
     fit-margin-left="0"
     fit-margin-right="0"
     fit-margin-bottom="0"
     inkscape:window-width="1280"
     inkscape:window-height="968"
     inkscape:window-x="-4"
     inkscape:window-y="-4"
     inkscape:window-maximized="1" />
  <metadata
     id="metadata7">
    <rdf:RDF>
      <cc:Work
         rdf:about="">
        <dc:format>image/svg+xml</dc:format>
        <dc:type
           rdf:resource="http://purl.org/dc/dcmitype/StillImage" />
        <dc:title></dc:title>
      </cc:Work>
    </rdf:RDF>
  </metadata>
  <g
     inkscape:label="Layer 1"
     inkscape:groupmode="layer"
     id="layer1"
     transform="translate(-43.782678,-355.39057)">
    <g
       transform="matrix(1.25,0,0,-1.25,1.1215531,638.24932)"
       inkscape:label="DOC_GreatWalks_rgb_logo8"
       id="g2993">
      <g
         id="g2995">
        <g
           clip-path="url(#clipPath2999)"
           id="g2997">
          <g
             transform="translate(34.1289,117.082)"
             id="g3003">
            <path
               id="path3005"
               style="fill:#1c1c1a;fill-opacity:1;fill-rule:nonzero;stroke:none"
               d="m 0,0 0,109.205 447.662,0 0,-191.726 -365.138,0 C 37.021,-82.521 0,-45.503 0,0"
               inkscape:connector-curvature="0" />
          </g>
          <g
             transform="translate(199.1396,150.8271)"
             id="g3007">
            <path
               id="path3009"
               style="fill:#ffffff;fill-opacity:1;fill-rule:nonzero;stroke:none"
               d="m 0,0 c 0,18.572 13.396,31.108 29.453,31.108 12.881,0 21.462,-7.308 21.462,-13.977 0,-3.785 -2.314,-6.308 -5.322,-6.308 -3.175,0 -5.496,2.247 -5.496,5.497 0,1.353 0.431,2.526 1.115,3.248 -1.975,1.98 -6.094,4.058 -12.017,4.058 -12.367,0 -21.208,-10.008 -21.208,-23.532 0,-13.977 9.53,-23.168 20.349,-23.168 6.181,0 11.072,1.799 15.451,4.866 l 0,11.626 -15.022,0 0,6.949 22.67,0 0,-29.666 -7.473,0 0,4.778 C 39.496,-28.032 34.171,-30.38 27.3,-30.38 13.224,-30.38 0,-18.932 0,0"
               inkscape:connector-curvature="0" />
          </g>
          <g
             transform="translate(313.7012,128.8301)"
             id="g3011">
            <path
               id="path3013"
               style="fill:#ffffff;fill-opacity:1;fill-rule:nonzero;stroke:none"
               d="m 0,0 6.867,0 0,44.715 -6.867,0 0,7.305 41.469,0 0,-15.509 -7.385,0 0,8.299 -19.405,0 0,-18.395 17.861,0 0,-7.033 -17.861,0.004 0,-19.471 19.405,-0.007 0,8.298 7.471,0 0,-15.512 L 0,-7.302 0,0 z"
               inkscape:connector-curvature="0" />
          </g>
          <g
             transform="translate(400.0869,148.1221)"
             id="g3015">
            <path
               id="path3017"
               style="fill:#ffffff;fill-opacity:1;fill-rule:nonzero;stroke:none"
               d="M 0,0 -8.929,25.882 -17.859,0 0,0 z m -37.524,-19.292 5.156,0 15.711,44.81 -6.269,0 0,7.21 28.337,0 0,-7.21 -6.355,0 15.713,-44.81 5.238,0 0,-7.306 -20.093,0 0,7.214 6.526,0 -4.209,12.533 -22.323,0 -4.206,-12.533 6.867,0 0,-7.214 -20.093,0 0,7.306 z"
               inkscape:connector-curvature="0" />
          </g>
          <g
             transform="translate(427.4004,128.8301)"
             id="g3019">
            <path
               id="path3021"
               style="fill:#ffffff;fill-opacity:1;fill-rule:nonzero;stroke:none"
               d="m 0,0 7.387,0 0,44.99 -12.621,0 0,-9.465 -7.387,0 0,16.495 47.824,0 0,-16.495 -7.385,0 0,9.465 -12.621,0 0,-44.99 7.384,0 0,-7.306 L 0,-7.306 0,0 z"
               inkscape:connector-curvature="0" />
          </g>
          <g
             transform="translate(205.0586,102.6123)"
             id="g3023">
            <path
               id="path3025"
               style="fill:#ffffff;fill-opacity:1;fill-rule:nonzero;stroke:none"
               d="m 0,0 -5.874,0 0,6.848 20.527,0 0,-6.848 -6.763,0 10.062,-34.821 13.201,35.582 3.947,0 13.199,-35.582 9.66,34.821 -7.006,0 0,6.848 20.526,0 0,-6.848 -5.957,0 -14.569,-49.523 -4.105,0 -13.842,36.593 -14.01,-36.593 -4.187,0 L 0,0 z"
               inkscape:connector-curvature="0" />
          </g>
          <g
             transform="translate(304.875,78.7813)"
             id="g3027">
            <path
               id="path3029"
               style="fill:#ffffff;fill-opacity:1;fill-rule:nonzero;stroke:none"
               d="M 0,0 -8.369,24.257 -16.74,0 0,0 z m -35.176,-18.085 4.83,0 14.733,42.002 -5.877,0 0,6.762 26.56,0 0,-6.762 -5.953,0 14.732,-42.002 4.907,0 0,-6.851 -18.834,0 0,6.763 6.113,0 -3.939,11.747 -20.931,0 -3.944,-11.747 6.439,0 0,-6.763 -18.836,0 0,6.851 z"
               inkscape:connector-curvature="0" />
          </g>
          <g
             transform="translate(330.4785,60.6963)"
             id="g3031">
            <path
               id="path3033"
               style="fill:#ffffff;fill-opacity:1;fill-rule:nonzero;stroke:none"
               d="m 0,0 6.438,0 0,41.916 -6.438,0 0,6.848 20.931,0 0,-6.848 -7.166,0 0,-42.004 16.743,0 0,8.199 7.002,0 0,-14.962 L 0,-6.851 0,0 z"
               inkscape:connector-curvature="0" />
          </g>
          <g
             transform="translate(374.8359,60.6924)"
             id="g3035">
            <path
               id="path3037"
               style="fill:#ffffff;fill-opacity:1;fill-rule:nonzero;stroke:none"
               d="m 0,0 6.438,0 0,41.92 -6.438,0 0,6.847 20.525,0 0,-6.679 -6.759,0 0,-21.968 20.767,21.968 -6.681,0 0,6.679 21.732,0 0,-6.847 -5.876,0 L 27.527,25.1 42.986,0 l 6.761,0 0,-6.847 -11.432,0 -16.263,26.793 -8.286,-8.621 0,-11.325 6.759,0 0,-6.847 L 0,-6.847 0,0 z"
               inkscape:connector-curvature="0" />
          </g>
          <g
             transform="translate(426.585,65.0029)"
             id="g3039">
            <path
               id="path3041"
               style="fill:#ffffff;fill-opacity:1;fill-rule:nonzero;stroke:none"
               d="m 0,0 c 0,3.55 2.01,5.832 4.829,5.832 2.899,0 4.829,-2.282 4.829,-4.649 0,-1.519 -0.399,-2.619 -1.042,-3.633 1.846,-1.693 5.391,-2.957 9.656,-2.957 6.44,0 10.544,3.296 10.544,8.787 0,5.239 -4.829,7.689 -10.465,9.889 C 8.854,16.984 2.01,20.371 2.01,30.255 c 0,8.71 6.606,15.214 16.827,15.214 9.257,0 16.501,-5.236 16.501,-11.409 0,-3.468 -2.095,-5.492 -4.669,-5.492 -3.061,0 -4.913,2.368 -4.913,4.901 0,1.351 0.404,2.197 0.89,2.956 -1.452,1.352 -4.586,2.368 -7.891,2.368 -5.879,0 -9.418,-3.296 -9.418,-7.945 0,-5.324 4.748,-7.608 10.787,-10.059 C 29.221,17.241 36.06,13.778 36.06,3.975 36.06,-6.168 28.491,-12.174 18.11,-12.174 7.728,-12.174 0,-6 0,0"
               inkscape:connector-curvature="0" />
          </g>
          <g
             transform="translate(292.8232,163.0879)"
             id="g3043">
            <path
               id="path3045"
               style="fill:#ffffff;fill-opacity:1;fill-rule:nonzero;stroke:none"
               d="m 0,0 c 0,6.942 -5.406,10.457 -13.735,10.457 l -6.53,0 0,-21.454 c 1.465,-0.086 3.439,-0.181 6.268,-0.181 C -5.925,-11.178 0,-7.121 0,0 m -34.942,-34.258 6.868,0 0,44.715 -6.868,0 0,7.305 21.636,0 c 12.707,0 21.293,-6.223 21.293,-17.487 0,-7.934 -4.808,-13.704 -11.508,-16.231 l 10.477,-18.302 6.615,0 0,-7.302 -11.937,0 -12.795,23.531 c -1.115,-0.088 -2.233,-0.178 -3.35,-0.178 -2.057,0 -4.289,0.09 -5.754,0.178 l 0,-16.229 7.216,0 0,-7.302 -21.893,0 0,7.302 z"
               inkscape:connector-curvature="0" />
          </g>
          <g
             transform="translate(53.4043,207.0117)"
             id="g3047">
            <path
               id="path3049"
               style="fill:#ffffff;fill-opacity:1;fill-rule:nonzero;stroke:none"
               d="m 0,0 0,-89.93 c 0,-34.931 28.317,-63.246 63.249,-63.246 34.927,0 63.256,28.315 63.256,63.246 L 126.646,-0.002 0,0 z"
               inkscape:connector-curvature="0" />
          </g>
          <g
             transform="translate(53.4043,207.0117)"
             id="g3051">
            <path
               id="path3053"
               style="fill:#ffffff;fill-opacity:1;fill-rule:nonzero;stroke:none"
               d="m 0,0 0,-89.93 c 0,-34.931 28.317,-63.246 63.249,-63.246 34.927,0 63.256,28.315 63.256,63.246 L 126.646,-0.002 0,0 z"
               inkscape:connector-curvature="0" />
          </g>
          <g
             transform="translate(162.4219,117.1797)"
             id="g3055">
            <path
               id="path3057"
               style="fill:#549433;fill-opacity:1;fill-rule:nonzero;stroke:none"
               d="m 0,0 c 0,-27.557 -23.968,-45.273 -46.048,-45.273 -25.502,0 -45.723,20.671 -45.723,46.173 0,19.799 16.302,35.58 36.275,35.58 13.526,0 23.951,-7.259 30.396,-16.687 C -33.839,17.646 -40.047,9.27 -40.047,0.9 c 0,-11.043 9.043,-19.484 18.713,-19.484 8.938,0 18.514,4.361 20.506,18.59 L 0,0 z"
               inkscape:connector-curvature="0" />
          </g>
          <g
             transform="translate(70.084,189.8125)"
             id="g3059">
            <path
               id="path3061"
               style="fill:#0099d8;fill-opacity:1;fill-rule:nonzero;stroke:none"
               d="m 0,0 -0.027,-31.275 c 9.773,8.966 22.81,14.445 37.119,14.445 27.491,0 54.471,-24.492 54.471,-54.033 l 0.775,0 0,70.857 L 0,0 z"
               inkscape:connector-curvature="0" />
          </g>
          <g
             transform="translate(204.6758,194.6484)"
             id="g3063">
            <path
               id="path3065"
               style="fill:#ffbb22;fill-opacity:1;fill-rule:nonzero;stroke:none"
               d="m 0,0 c 3.965,0 5.999,2.185 5.999,5.465 0,3.256 -2.401,5.16 -6.173,5.16 l -1.584,0 L -1.758,0 0,0 z m -5.423,0 1.716,0 0,10.625 -1.716,0 0,1.738 5.296,0 c 5.01,0 8.119,-2.699 8.119,-6.922 0,-4.262 -2.935,-7.175 -8.248,-7.175 l -5.167,0 0,1.734 z"
               inkscape:connector-curvature="0" />
          </g>
          <g
             transform="translate(216.5283,198.3115)"
             id="g3067">
            <path
               id="path3069"
               style="fill:#ffbb22;fill-opacity:1;fill-rule:nonzero;stroke:none"
               d="M 0,0 5.163,0 C 5.077,1.479 4.175,2.487 2.613,2.487 1.37,2.487 0.235,1.671 0,0 m 0,-1.373 c 0.257,-1.756 1.545,-2.611 3.345,-2.611 1.174,0 2.184,0.364 3.276,0.986 L 6.47,-4.691 C 5.505,-5.294 4.329,-5.57 3.063,-5.57 c -2.976,0 -4.994,1.926 -4.994,4.757 0,2.591 1.782,4.822 4.587,4.822 2.849,0 4.351,-2.035 4.351,-4.397 0,-0.338 -0.045,-0.705 -0.088,-0.985 l -6.919,0 z"
               inkscape:connector-curvature="0" />
          </g>
          <g
             transform="translate(233.3379,197.5605)"
             id="g3071">
            <path
               id="path3073"
               style="fill:#ffbb22;fill-opacity:1;fill-rule:nonzero;stroke:none"
               d="m 0,0 c 0,1.93 -1.175,3.15 -2.745,3.15 -1.047,0 -1.841,-0.49 -2.526,-1.177 l 0,-4.305 c 0.643,-0.514 1.458,-0.879 2.487,-0.879 C -1.223,-3.211 0,-1.947 0,0 m -8.55,-7.305 1.437,0 0,10.305 -1.437,0 0,1.586 3.196,0 0,-1.197 c 0.768,0.791 1.625,1.371 2.954,1.371 2.802,0 4.306,-1.928 4.306,-4.735 0,-2.66 -1.861,-4.844 -4.476,-4.844 -1.051,0 -1.973,0.387 -2.701,0.987 l 0,-3.473 1.65,0 0,-1.542 -4.929,0 0,1.542 z"
               inkscape:connector-curvature="0" />
          </g>
          <g
             transform="translate(242.9609,195.2285)"
             id="g3075">
            <path
               id="path3077"
               style="fill:#ffbb22;fill-opacity:1;fill-rule:nonzero;stroke:none"
               d="m 0,0 0,1.497 c -0.622,0.171 -1.414,0.319 -2.25,0.319 -1.308,0 -2.035,-0.621 -2.035,-1.516 0,-0.837 0.621,-1.394 1.693,-1.394 0.988,0 1.886,0.469 2.592,1.094 m -6.148,0.15 c 0,1.693 1.498,2.784 3.62,2.784 0.965,0 2.036,-0.215 2.528,-0.366 l 0,1.053 c 0,0.533 -0.151,0.963 -0.41,1.283 -0.383,0.471 -1.028,0.709 -1.925,0.709 -0.579,0 -0.923,-0.131 -1.2,-0.281 0.062,-0.148 0.107,-0.34 0.107,-0.514 0,-0.598 -0.449,-1.05 -1.072,-1.05 -0.643,0 -1.094,0.452 -1.094,1.093 0,1.094 1.202,2.231 3.559,2.231 C -0.6,7.092 0.453,6.664 1.07,5.933 1.541,5.375 1.777,4.65 1.777,3.816 l 0,-4.587 1.436,0 0,-1.543 -3.169,0 0,1.116 c -0.75,-0.709 -1.929,-1.289 -3.172,-1.289 -1.692,0 -3.02,0.967 -3.02,2.637"
               inkscape:connector-curvature="0" />
          </g>
          <g
             transform="translate(254.8633,200.9688)"
             id="g3079">
            <path
               id="path3081"
               style="fill:#ffbb22;fill-opacity:1;fill-rule:nonzero;stroke:none"
               d="m 0,0 c 0,-0.663 -0.535,-1.24 -1.179,-1.24 -0.622,0 -1.05,0.385 -1.221,0.791 -0.686,-0.214 -1.477,-0.987 -1.927,-1.865 l 0,-4.198 1.69,0 0,-1.543 -4.948,0 0,1.543 1.435,0 0,6.104 -1.435,0 0,1.586 3.193,0 0,-2.1 c 0.73,1.267 1.8,2.274 2.871,2.274 C -0.514,1.352 0,0.729 0,0"
               inkscape:connector-curvature="0" />
          </g>
          <g
             transform="translate(257.5566,193.8975)"
             id="g3083">
            <path
               id="path3085"
               style="fill:#ffbb22;fill-opacity:1;fill-rule:nonzero;stroke:none"
               d="m 0,0 c -0.172,0.366 -0.277,0.839 -0.277,1.351 l 0,5.312 -1.735,0 0,1.586 1.735,0 0,2.123 1.841,0.75 0,-2.873 2.806,0 0,-1.586 -2.806,0 0,-4.99 c 0,-0.301 0.041,-0.515 0.13,-0.707 0.169,-0.303 0.515,-0.451 1.047,-0.451 0.559,0 1.224,0.256 1.761,0.513 L 4.308,-0.62 C 3.771,-0.896 3.084,-1.156 2.229,-1.156 1.201,-1.156 0.408,-0.792 0,0"
               inkscape:connector-curvature="0" />
          </g>
          <g
             transform="translate(263.375,194.457)"
             id="g3087">
            <path
               id="path3089"
               style="fill:#ffbb22;fill-opacity:1;fill-rule:nonzero;stroke:none"
               d="m 0,0 1.434,0 0,6.104 -1.434,0 0,1.585 3.191,0 0,-1.605 c 0.774,0.897 1.909,1.779 3.258,1.779 1.072,0 1.799,-0.41 2.25,-1.049 0.128,-0.195 0.212,-0.406 0.28,-0.644 0.942,0.943 2.079,1.693 3.257,1.693 1.327,0 2.141,-0.492 2.569,-1.328 0.236,-0.494 0.363,-1.094 0.363,-1.758 l 0,-4.777 1.436,0 0,-1.543 -4.649,0 0,1.543 1.374,0 0,4.369 c 0,0.43 -0.067,0.773 -0.175,1.053 -0.215,0.514 -0.64,0.748 -1.306,0.748 -0.944,0 -1.821,-0.558 -2.634,-1.352 l 0,-4.818 1.349,0 0,-1.543 -4.563,0 0,1.543 1.369,0 0,4.369 c 0,0.43 -0.042,0.773 -0.15,1.053 C 6.983,5.936 6.576,6.17 5.912,6.17 4.927,6.17 4.048,5.568 3.256,4.799 l 0,-4.799 1.35,0 0,-1.543 L 0,-1.543 0,0 z"
               inkscape:connector-curvature="0" />
          </g>
          <g
             transform="translate(283.0039,198.3115)"
             id="g3091">
            <path
               id="path3093"
               style="fill:#ffbb22;fill-opacity:1;fill-rule:nonzero;stroke:none"
               d="M 0,0 5.163,0 C 5.08,1.479 4.18,2.487 2.617,2.487 1.373,2.487 0.238,1.671 0,0 m 0,-1.373 c 0.26,-1.756 1.543,-2.611 3.346,-2.611 1.177,0 2.185,0.364 3.277,0.986 L 6.473,-4.691 C 5.506,-5.294 4.332,-5.57 3.065,-5.57 c -2.977,0 -4.991,1.926 -4.991,4.757 0,2.591 1.78,4.822 4.586,4.822 2.846,0 4.348,-2.035 4.348,-4.397 0,-0.338 -0.041,-0.705 -0.084,-0.985 l -6.924,0 z"
               inkscape:connector-curvature="0" />
          </g>
          <g
             transform="translate(294.7715,200.541)"
             id="g3095">
            <path
               id="path3097"
               style="fill:#ffbb22;fill-opacity:1;fill-rule:nonzero;stroke:none"
               d="m 0,0 c 0.88,0.942 2.035,1.779 3.363,1.779 1.158,0 1.95,-0.451 2.422,-1.179 0.302,-0.514 0.188,-1.159 0.188,-1.926 l 0,-4.758 1.435,0 0,-1.543 -4.363,0 0,1.543 1.369,0 0,4.35 c 0,0.449 -0.065,0.811 -0.217,1.091 -0.256,0.495 -0.706,0.729 -1.369,0.729 -1.01,0 -1.97,-0.602 -2.764,-1.393 l 0,-4.777 1.372,0 0,-1.543 -4.628,0 0,1.543 1.436,0 0,6.104 -1.436,0 0,1.585 L 0,1.605 0,0 z"
               inkscape:connector-curvature="0" />
          </g>
          <g
             transform="translate(304.7852,193.8975)"
             id="g3099">
            <path
               id="path3101"
               style="fill:#ffbb22;fill-opacity:1;fill-rule:nonzero;stroke:none"
               d="m 0,0 c -0.174,0.366 -0.281,0.839 -0.281,1.351 l 0,5.312 -1.734,0 0,1.586 1.734,0 0,2.123 1.847,0.75 0,-2.873 2.802,0 0,-1.586 -2.802,0 0,-4.99 c 0,-0.301 0.039,-0.515 0.123,-0.707 0.176,-0.303 0.515,-0.451 1.05,-0.451 0.558,0 1.222,0.256 1.759,0.513 L 4.304,-0.62 C 3.769,-0.896 3.084,-1.156 2.229,-1.156 1.198,-1.156 0.404,-0.792 0,0"
               inkscape:connector-curvature="0" />
          </g>
          <g
             transform="translate(323.3418,197.5176)"
             id="g3103">
            <path
               id="path3105"
               style="fill:#ffbb22;fill-opacity:1;fill-rule:nonzero;stroke:none"
               d="M 0,0 C 0,1.889 -1.199,3.24 -2.912,3.24 -4.649,3.24 -5.85,1.889 -5.85,0 c 0,-1.885 1.201,-3.211 2.938,-3.211 C -1.199,-3.211 0,-1.885 0,0 m -7.732,0 c 0,2.596 1.882,4.803 4.82,4.803 2.933,0 4.818,-2.188 4.818,-4.803 0,-2.569 -1.906,-4.776 -4.818,-4.776 -2.959,0 -4.82,2.184 -4.82,4.776"
               inkscape:connector-curvature="0" />
          </g>
          <g
             transform="translate(331.3574,207.1387)"
             id="g3107">
            <path
               id="path3109"
               style="fill:#ffbb22;fill-opacity:1;fill-rule:nonzero;stroke:none"
               d="m 0,0 c -0.232,-0.061 -0.448,-0.215 -0.619,-0.406 -0.299,-0.405 -0.473,-0.988 -0.473,-1.886 l 0,-2.7 2.403,0 0,-1.586 -2.403,0 0,-6.104 1.801,0 0,-1.543 -5.059,0 0,1.543 1.436,0 0,6.104 -1.606,0 0,1.586 1.606,0 0,2.359 c 0,1.563 0.28,2.592 1.074,3.363 0.578,0.583 1.329,0.901 2.291,0.901 1.072,0 1.844,-0.535 1.844,-1.373 0,-0.707 -0.492,-1.137 -1.072,-1.137 C 0.582,-0.879 0.195,-0.492 0,0"
               inkscape:connector-curvature="0" />
          </g>
          <g
             transform="translate(339.0332,199.9199)"
             id="g3111">
            <path
               id="path3113"
               style="fill:#ffbb22;fill-opacity:1;fill-rule:nonzero;stroke:none"
               d="m 0,0 c 0,4.309 3.321,7.35 7.261,7.35 3.087,0 5.357,-1.758 5.357,-3.453 0,-0.894 -0.597,-1.52 -1.37,-1.52 -0.792,0 -1.37,0.515 -1.37,1.287 0,0.364 0.171,0.664 0.362,0.814 C 9.858,4.949 8.805,5.572 7.22,5.572 4.199,5.572 1.994,3.084 1.994,0.02 c 0,-2.934 2.142,-5.506 5.336,-5.506 1.67,0 3.041,0.685 4.218,1.843 l 1.225,-1.351 C 11.377,-6.449 9.386,-7.264 7.33,-7.264 2.978,-7.264 0,-4.093 0,0"
               inkscape:connector-curvature="0" />
          </g>
          <g
             transform="translate(361.0645,197.5176)"
             id="g3115">
            <path
               id="path3117"
               style="fill:#ffbb22;fill-opacity:1;fill-rule:nonzero;stroke:none"
               d="m 0,0 c 0,1.889 -1.201,3.24 -2.914,3.24 -1.737,0 -2.938,-1.351 -2.938,-3.24 0,-1.885 1.201,-3.211 2.938,-3.211 C -1.201,-3.211 0,-1.885 0,0 m -7.736,0 c 0,2.596 1.884,4.803 4.822,4.803 2.934,0 4.819,-2.188 4.819,-4.803 0,-2.569 -1.905,-4.776 -4.819,-4.776 -2.957,0 -4.822,2.184 -4.822,4.776"
               inkscape:connector-curvature="0" />
          </g>
          <g
             transform="translate(367.7939,200.541)"
             id="g3119">
            <path
               id="path3121"
               style="fill:#ffbb22;fill-opacity:1;fill-rule:nonzero;stroke:none"
               d="m 0,0 c 0.88,0.942 2.036,1.779 3.364,1.779 1.159,0 1.951,-0.451 2.422,-1.179 0.3,-0.514 0.471,-1.159 0.471,-1.926 l 0,-4.758 1.436,0 0,-1.543 -4.647,0 0,1.543 1.371,0 0,4.35 c 0,0.449 -0.066,0.811 -0.218,1.091 -0.254,0.495 -0.706,0.729 -1.372,0.729 -1.003,0 -1.969,-0.602 -2.762,-1.393 l 0,-4.777 1.372,0 0,-1.543 -4.628,0 0,1.543 1.436,0 0,6.104 -1.436,0 0,1.585 L 0,1.605 0,0 z"
               inkscape:connector-curvature="0" />
          </g>
          <g
             transform="translate(383.0977,199.127)"
             id="g3123">
            <path
               id="path3125"
               style="fill:#ffbb22;fill-opacity:1;fill-rule:nonzero;stroke:none"
               d="m 0,0 c -0.645,0 -1.117,0.406 -1.117,1.028 0,0.151 0.021,0.324 0.087,0.472 -0.366,0.172 -0.9,0.28 -1.478,0.28 -1.18,0 -1.822,-0.58 -1.822,-1.178 0,-0.684 0.706,-0.967 2.185,-1.352 1.993,-0.515 3.45,-1.051 3.45,-2.787 0,-1.84 -1.759,-2.868 -3.772,-2.868 -1.391,0 -2.805,0.471 -3.428,1.091 -0.343,0.342 -0.513,0.728 -0.513,1.201 0,0.599 0.429,1.113 1.051,1.113 0.595,0 1.091,-0.406 1.091,-1.071 0,-0.173 -0.021,-0.32 -0.086,-0.472 0.342,-0.215 1.03,-0.429 1.885,-0.429 1.115,0 2.013,0.429 2.013,1.243 0,0.665 -0.663,0.983 -2.034,1.328 -2.356,0.6 -3.621,1.182 -3.621,2.83 0,1.413 1.265,2.764 3.621,2.764 1.2,0 2.4,-0.382 3.002,-0.987 C 0.833,1.885 0.984,1.5 0.984,1.094 0.984,0.429 0.573,0 0,0"
               inkscape:connector-curvature="0" />
          </g>
          <g
             transform="translate(387.8398,198.3115)"
             id="g3127">
            <path
               id="path3129"
               style="fill:#ffbb22;fill-opacity:1;fill-rule:nonzero;stroke:none"
               d="M 0,0 5.164,0 C 5.078,1.479 4.18,2.487 2.615,2.487 1.373,2.487 0.236,1.671 0,0 m 0,-1.373 c 0.258,-1.756 1.543,-2.611 3.346,-2.611 1.177,0 2.185,0.364 3.277,0.986 L 6.472,-4.691 C 5.508,-5.294 4.331,-5.57 3.067,-5.57 c -2.978,0 -4.995,1.926 -4.995,4.757 0,2.591 1.78,4.822 4.586,4.822 2.85,0 4.347,-2.035 4.347,-4.397 0,-0.338 -0.039,-0.705 -0.083,-0.985 l -6.922,0 z"
               inkscape:connector-curvature="0" />
          </g>
          <g
             transform="translate(403.8574,200.9688)"
             id="g3131">
            <path
               id="path3133"
               style="fill:#ffbb22;fill-opacity:1;fill-rule:nonzero;stroke:none"
               d="m 0,0 c 0,-0.663 -0.533,-1.24 -1.178,-1.24 -0.621,0 -1.049,0.385 -1.22,0.791 -0.688,-0.214 -1.479,-0.987 -1.93,-1.865 l 0,-4.198 1.693,0 0,-1.543 -4.949,0 0,1.543 1.437,0 0,6.104 -1.437,0 0,1.586 3.191,0 0,-2.1 c 0.731,1.267 1.801,2.274 2.872,2.274 C -0.514,1.352 0,0.729 0,0"
               inkscape:connector-curvature="0" />
          </g>
          <g
             transform="translate(405.6855,200.5605)"
             id="g3135">
            <path
               id="path3137"
               style="fill:#ffbb22;fill-opacity:1;fill-rule:nonzero;stroke:none"
               d="m 0,0 -1.154,0 0,1.586 4.474,0 0,-1.52 -1.409,0 2.507,-5.551 2.505,5.551 -1.478,0 0,1.52 4.477,0 0,-1.586 -1.154,0 -3.795,-7.904 -1.18,0 L 0,0 z"
               inkscape:connector-curvature="0" />
          </g>
          <g
             transform="translate(422.1396,195.2285)"
             id="g3139">
            <path
               id="path3141"
               style="fill:#ffbb22;fill-opacity:1;fill-rule:nonzero;stroke:none"
               d="m 0,0 0,1.497 c -0.622,0.171 -1.413,0.319 -2.247,0.319 -1.309,0 -2.039,-0.621 -2.039,-1.516 0,-0.837 0.622,-1.394 1.693,-1.394 0.988,0 1.888,0.469 2.593,1.094 m -6.147,0.15 c 0,1.693 1.5,2.784 3.619,2.784 0.965,0 2.034,-0.215 2.528,-0.366 l 0,1.053 c 0,0.533 -0.151,0.963 -0.407,1.283 -0.387,0.471 -1.03,0.709 -1.928,0.709 -0.578,0 -0.92,-0.131 -1.201,-0.281 0.064,-0.148 0.109,-0.34 0.109,-0.514 0,-0.598 -0.451,-1.05 -1.074,-1.05 -0.643,0 -1.092,0.452 -1.092,1.093 0,1.094 1.201,2.231 3.558,2.231 1.436,0 2.485,-0.428 3.105,-1.159 C 1.542,5.375 1.78,4.65 1.78,3.816 l 0,-4.587 1.435,0 0,-1.543 -3.171,0 0,1.116 c -0.749,-0.709 -1.93,-1.289 -3.173,-1.289 -1.692,0 -3.018,0.967 -3.018,2.637"
               inkscape:connector-curvature="0" />
          </g>
          <g
             transform="translate(427.957,193.8975)"
             id="g3143">
            <path
               id="path3145"
               style="fill:#ffbb22;fill-opacity:1;fill-rule:nonzero;stroke:none"
               d="m 0,0 c -0.169,0.366 -0.277,0.839 -0.277,1.351 l 0,5.312 -1.736,0 0,1.586 1.736,0 0,2.123 1.84,0.75 0,-2.873 2.808,0 0,-1.586 -2.808,0 0,-4.99 c 0,-0.301 0.046,-0.515 0.13,-0.707 0.172,-0.303 0.516,-0.451 1.049,-0.451 0.559,0 1.221,0.256 1.758,0.513 L 4.308,-0.62 C 3.771,-0.896 3.086,-1.156 2.229,-1.156 1.201,-1.156 0.408,-0.792 0,0"
               inkscape:connector-curvature="0" />
          </g>
          <g
             transform="translate(435.1016,205.4482)"
             id="g3147">
            <path
               id="path3149"
               style="fill:#ffbb22;fill-opacity:1;fill-rule:nonzero;stroke:none"
               d="M 0,0 C 0,0.728 0.622,1.327 1.349,1.327 2.055,1.327 2.678,0.728 2.678,0 2.678,-0.752 2.033,-1.351 1.328,-1.351 0.599,-1.351 0,-0.752 0,0 m -0.877,-10.991 1.499,0 0,6.103 -1.499,0 0,1.586 3.342,0 0,-7.689 1.478,0 0,-1.543 -4.82,0 0,1.543 z"
               inkscape:connector-curvature="0" />
          </g>
          <g
             transform="translate(448.0605,197.5176)"
             id="g3151">
            <path
               id="path3153"
               style="fill:#ffbb22;fill-opacity:1;fill-rule:nonzero;stroke:none"
               d="m 0,0 c 0,1.889 -1.201,3.24 -2.918,3.24 -1.733,0 -2.934,-1.351 -2.934,-3.24 0,-1.885 1.201,-3.211 2.934,-3.211 C -1.201,-3.211 0,-1.885 0,0 m -7.736,0 c 0,2.596 1.884,4.803 4.818,4.803 2.939,0 4.822,-2.188 4.822,-4.803 0,-2.569 -1.904,-4.776 -4.822,-4.776 -2.953,0 -4.818,2.184 -4.818,4.776"
               inkscape:connector-curvature="0" />
          </g>
          <g
             transform="translate(454.79,200.541)"
             id="g3155">
            <path
               id="path3157"
               style="fill:#ffbb22;fill-opacity:1;fill-rule:nonzero;stroke:none"
               d="m 0,0 c 0.88,0.942 2.036,1.779 3.366,1.779 1.155,0 1.947,-0.451 2.42,-1.179 0.299,-0.514 0.473,-1.159 0.473,-1.926 l 0,-4.758 1.433,0 0,-1.543 -4.648,0 0,1.543 1.371,0 0,4.35 c 0,0.449 -0.064,0.811 -0.215,1.091 -0.258,0.495 -0.707,0.729 -1.369,0.729 -1.01,0 -1.976,-0.602 -2.765,-1.393 l 0,-4.777 1.371,0 0,-1.543 -4.628,0 0,1.543 1.436,0 0,6.104 -1.436,0 0,1.585 L 0,1.605 0,0 z"
               inkscape:connector-curvature="0" />
          </g>
        </g>
      </g>
    </g>
  </g>
</svg>
