<?xml version="1.0" encoding="UTF-8" standalone="no"?>
<!-- Created with Inkscape (http://www.inkscape.org/) -->

<svg
   xmlns:dc="http://purl.org/dc/elements/1.1/"
   xmlns:cc="http://creativecommons.org/ns#"
   xmlns:rdf="http://www.w3.org/1999/02/22-rdf-syntax-ns#"
   xmlns:svg="http://www.w3.org/2000/svg"
   xmlns="http://www.w3.org/2000/svg"
   xmlns:sodipodi="http://sodipodi.sourceforge.net/DTD/sodipodi-0.dtd"
   xmlns:inkscape="http://www.inkscape.org/namespaces/inkscape"
   width="538.66388"
   height="211.01015"
   id="svg2"
   version="1.1"
   inkscape:version="0.48.4 r9939"
   sodipodi:docname="great-walks-logo.svg">
  <defs
     id="defs4">
    <clipPath
       id="clipPath2999"
       clipPathUnits="userSpaceOnUse">
      <path
         id="path3001"
         d="m 0,260.787 515.905,0 L 515.905,0 0,0 0,260.787 z"
         inkscape:connector-curvature="0" />
    </clipPath>
  </defs>
  <sodipodi:namedview
     id="base"
     pagecolor="#ffffff"
     bordercolor="#666666"
     borderopacity="1.0"
     inkscape:pageopacity="0.0"
     inkscape:pageshadow="2"
     inkscape:zoom="0.7"
     inkscape:cx="845.0566"
     inkscape:cy="627.40412"
     inkscape:document-units="px"
     inkscape:current-layer="layer1"
     showgrid="false"
     fit-margin-top="0"
     fit-margin-left="0"
     fit-margin-right="0"
     fit-margin-bottom="0"
     inkscape:window-width="1920"
     inkscape:window-height="1056"
     inkscape:window-x="0"
     inkscape:window-y="24"
     inkscape:window-maximized="1"
     showguides="true"
     inkscape:guide-bbox="true">
    <sodipodi:guide
       orientation="0,1"
       position="8.109681,211.01015"
       id="guide3312" />
    <sodipodi:guide
       orientation="1,0"
       position="538.66385,211.01015"
       id="guide3314" />
  </sodipodi:namedview>
  <metadata
     id="metadata7">
    <rdf:RDF>
      <cc:Work
         rdf:about="">
        <dc:format>image/svg+xml</dc:format>
        <dc:type
           rdf:resource="http://purl.org/dc/dcmitype/StillImage" />
        <dc:title />
      </cc:Work>
    </rdf:RDF>
  </metadata>
  <g
     inkscape:label="Layer 1"
     inkscape:groupmode="layer"
     id="layer1"
     transform="translate(-43.53014,-385.04807)">
    <g
       id="g3003"
       transform="matrix(1.25,0,0,-1.25,43.782678,491.89682)">
      <path
         inkscape:connector-curvature="0"
         d="m 0,0 -0.20203051,85.478999 430.93108051,0 0,-168.808121 L 82.524,-82.521 C 37.021123,-82.415396 0,-45.503 0,0"
         style="fill:#1c1c1a;fill-opacity:1;fill-rule:nonzero;stroke:none"
         id="path3005"
         sodipodi:nodetypes="ccccsc" />
    </g>
    <g
       id="g3007"
       transform="matrix(1.25,0,0,-1.25,228.04605,445.71545)">
      <path
         inkscape:connector-curvature="0"
         d="m 0,0 c 0,18.572 13.396,31.108 29.453,31.108 12.881,0 21.462,-7.308 21.462,-13.977 0,-3.785 -2.314,-6.308 -5.322,-6.308 -3.175,0 -5.496,2.247 -5.496,5.497 0,1.353 0.431,2.526 1.115,3.248 -1.975,1.98 -6.094,4.058 -12.017,4.058 -12.367,0 -21.208,-10.008 -21.208,-23.532 0,-13.977 9.53,-23.168 20.349,-23.168 6.181,0 11.072,1.799 15.451,4.866 l 0,11.626 -15.022,0 0,6.949 22.67,0 0,-29.666 -7.473,0 0,4.778 C 39.496,-28.032 34.171,-30.38 27.3,-30.38 13.224,-30.38 0,-18.932 0,0"
         style="fill:#ffffff;fill-opacity:1;fill-rule:nonzero;stroke:none"
         id="path3009" />
    </g>
    <g
       id="g3011"
       transform="matrix(1.25,0,0,-1.25,371.24805,473.2117)">
      <path
         inkscape:connector-curvature="0"
         d="m 0,0 6.867,0 0,44.715 -6.867,0 0,7.305 41.469,0 0,-15.509 -7.385,0 0,8.299 -19.405,0 0,-18.395 17.861,0 0,-7.033 -17.861,0.004 0,-19.471 19.405,-0.007 0,8.298 7.471,0 0,-15.512 L 0,-7.302 0,0 z"
         style="fill:#ffffff;fill-opacity:1;fill-rule:nonzero;stroke:none"
         id="path3013" />
    </g>
    <g
       id="g3015"
       transform="matrix(1.25,0,0,-1.25,479.23018,449.09669)">
      <path
         inkscape:connector-curvature="0"
         d="M 0,0 -8.929,25.882 -17.859,0 0,0 z m -37.524,-19.292 5.156,0 15.711,44.81 -6.269,0 0,7.21 28.337,0 0,-7.21 -6.355,0 15.713,-44.81 5.238,0 0,-7.306 -20.093,0 0,7.214 6.526,0 -4.209,12.533 -22.323,0 -4.206,-12.533 6.867,0 0,-7.214 -20.093,0 0,7.306 z"
         style="fill:#ffffff;fill-opacity:1;fill-rule:nonzero;stroke:none"
         id="path3017" />
    </g>
    <g
       id="g3019"
       transform="matrix(1.25,0,0,-1.25,513.37205,473.2117)">
      <path
         inkscape:connector-curvature="0"
         d="m 0,0 7.387,0 0,44.99 -12.621,0 0,-9.465 -7.387,0 0,16.495 47.824,0 0,-16.495 -7.385,0 0,9.465 -12.621,0 0,-44.99 7.384,0 0,-7.306 L 0,-7.306 0,0 z"
         style="fill:#ffffff;fill-opacity:1;fill-rule:nonzero;stroke:none"
         id="path3021" />
    </g>
    <g
       id="g3023"
       transform="matrix(1.25,0,0,-1.25,235.4448,505.98394)">
      <path
         inkscape:connector-curvature="0"
         d="m 0,0 -5.874,0 0,6.848 20.527,0 0,-6.848 -6.763,0 10.062,-34.821 13.201,35.582 3.947,0 13.199,-35.582 9.66,34.821 -7.006,0 0,6.848 20.526,0 0,-6.848 -5.957,0 -14.569,-49.523 -4.105,0 -13.842,36.593 -14.01,-36.593 -4.187,0 L 0,0 z"
         style="fill:#ffffff;fill-opacity:1;fill-rule:nonzero;stroke:none"
         id="path3025" />
    </g>
    <g
       id="g3027"
       transform="matrix(1.25,0,0,-1.25,360.2153,535.77269)">
      <path
         inkscape:connector-curvature="0"
         d="M 0,0 -8.369,24.257 -16.74,0 0,0 z m -35.176,-18.085 4.83,0 14.733,42.002 -5.877,0 0,6.762 26.56,0 0,-6.762 -5.953,0 14.732,-42.002 4.907,0 0,-6.851 -18.834,0 0,6.763 6.113,0 -3.939,11.747 -20.931,0 -3.944,-11.747 6.439,0 0,-6.763 -18.836,0 0,6.851 z"
         style="fill:#ffffff;fill-opacity:1;fill-rule:nonzero;stroke:none"
         id="path3029" />
    </g>
    <g
       id="g3031"
       transform="matrix(1.25,0,0,-1.25,392.21968,558.37895)">
      <path
         inkscape:connector-curvature="0"
         d="m 0,0 6.438,0 0,41.916 -6.438,0 0,6.848 20.931,0 0,-6.848 -7.166,0 0,-42.004 16.743,0 0,8.199 7.002,0 0,-14.962 L 0,-6.851 0,0 z"
         style="fill:#ffffff;fill-opacity:1;fill-rule:nonzero;stroke:none"
         id="path3033" />
    </g>
    <g
       id="g3035"
       transform="matrix(1.25,0,0,-1.25,447.66643,558.38382)">
      <path
         inkscape:connector-curvature="0"
         d="m 0,0 6.438,0 0,41.92 -6.438,0 0,6.847 20.525,0 0,-6.679 -6.759,0 0,-21.968 20.767,21.968 -6.681,0 0,6.679 21.732,0 0,-6.847 -5.876,0 L 27.527,25.1 42.986,0 l 6.761,0 0,-6.847 -11.432,0 -16.263,26.793 -8.286,-8.621 0,-11.325 6.759,0 0,-6.847 L 0,-6.847 0,0 z"
         style="fill:#ffffff;fill-opacity:1;fill-rule:nonzero;stroke:none"
         id="path3037" />
    </g>
    <g
       id="g3039"
       transform="matrix(1.25,0,0,-1.25,512.3528,552.9957)">
      <path
         inkscape:connector-curvature="0"
         d="m 0,0 c 0,3.55 2.01,5.832 4.829,5.832 2.899,0 4.829,-2.282 4.829,-4.649 0,-1.519 -0.399,-2.619 -1.042,-3.633 1.846,-1.693 5.391,-2.957 9.656,-2.957 6.44,0 10.544,3.296 10.544,8.787 0,5.239 -4.829,7.689 -10.465,9.889 C 8.854,16.984 2.01,20.371 2.01,30.255 c 0,8.71 6.606,15.214 16.827,15.214 9.257,0 16.501,-5.236 16.501,-11.409 0,-3.468 -2.095,-5.492 -4.669,-5.492 -3.061,0 -4.913,2.368 -4.913,4.901 0,1.351 0.404,2.197 0.89,2.956 -1.452,1.352 -4.586,2.368 -7.891,2.368 -5.879,0 -9.418,-3.296 -9.418,-7.945 0,-5.324 4.748,-7.608 10.787,-10.059 C 29.221,17.241 36.06,13.778 36.06,3.975 36.06,-6.168 28.491,-12.174 18.11,-12.174 7.728,-12.174 0,-6 0,0"
         style="fill:#ffffff;fill-opacity:1;fill-rule:nonzero;stroke:none"
         id="path3041" />
    </g>
    <g
       id="g3043"
       transform="matrix(1.25,0,0,-1.25,345.15055,430.38945)">
      <path
         inkscape:connector-curvature="0"
         d="m 0,0 c 0,6.942 -5.406,10.457 -13.735,10.457 l -6.53,0 0,-21.454 c 1.465,-0.086 3.439,-0.181 6.268,-0.181 C -5.925,-11.178 0,-7.121 0,0 m -34.942,-34.258 6.868,0 0,44.715 -6.868,0 0,7.305 21.636,0 c 12.707,0 21.293,-6.223 21.293,-17.487 0,-7.934 -4.808,-13.704 -11.508,-16.231 l 10.477,-18.302 6.615,0 0,-7.302 -11.937,0 -12.795,23.531 c -1.115,-0.088 -2.233,-0.178 -3.35,-0.178 -2.057,0 -4.289,0.09 -5.754,0.178 l 0,-16.229 7.216,0 0,-7.302 -21.893,0 0,7.302 z"
         style="fill:#ffffff;fill-opacity:1;fill-rule:nonzero;stroke:none"
         id="path3045" />
    </g>
    <g
       id="g3047"
       transform="matrix(1.0867891,0,0,-1.0867891,67.876928,404.4847)">
      <path
         inkscape:connector-curvature="0"
         d="m 0,0 0,-89.93 c 0,-34.931 28.317,-63.246 63.249,-63.246 34.927,0 63.256,28.315 63.256,63.246 L 126.646,-0.002 0,0 z"
         style="fill:#ffffff;fill-opacity:1;fill-rule:nonzero;stroke:none"
         id="path3049" />
    </g>
    <g
       id="g3051"
       transform="matrix(1.0867891,0,0,-1.0867891,67.876928,404.4847)">
      <path
         inkscape:connector-curvature="0"
         d="m 0,0 0,-89.93 c 0,-34.931 28.317,-63.246 63.249,-63.246 34.927,0 63.256,28.315 63.256,63.246 L 126.646,-0.002 0,0 z"
         style="fill:#ffffff;fill-opacity:1;fill-rule:nonzero;stroke:none"
         id="path3053" />
    </g>
    <path
       id="path3057"
       style="fill:#309433;fill-opacity:1;fill-rule:nonzero;stroke:none"
       d="m 186.35606,502.11313 c 0,29.94865 -26.04816,49.2022 -50.04446,49.2022 -27.7153,0 -49.691262,-22.46501 -49.691262,-50.18031 0,-21.51734 17.716832,-38.66796 39.423272,-38.66796 14.69991,0 26.02969,7.88901 33.03404,18.13525 -9.49745,2.33334 -16.24423,11.43629 -16.24423,20.53271 0,12.00141 9.82783,21.175 20.33708,21.175 9.71372,0 20.12081,-4.73949 22.2857,-20.20341 l 0.89986,0.007 z"
       inkscape:connector-curvature="0" />
    <path
       id="path3061"
       style="fill:#0093d0;fill-opacity:1;fill-rule:nonzero;stroke:none"
       d="m 86.004243,423.17659 -0.02934,33.98933 c 10.62119,-9.74415 24.78966,-15.69867 40.34052,-15.69867 29.87692,0 59.19849,26.61764 59.19849,58.72248 l 0.84226,0 0,-77.00662 -100.351927,-0.007 z"
       inkscape:connector-curvature="0" />
  </g>
</svg>
