<?xml version="1.0" encoding="UTF-8" standalone="no"?>
<!-- Created with Inkscape (http://www.inkscape.org/) -->

<svg
   xmlns:dc="http://purl.org/dc/elements/1.1/"
   xmlns:cc="http://creativecommons.org/ns#"
   xmlns:rdf="http://www.w3.org/1999/02/22-rdf-syntax-ns#"
   xmlns:svg="http://www.w3.org/2000/svg"
   xmlns="http://www.w3.org/2000/svg"
   xmlns:sodipodi="http://sodipodi.sourceforge.net/DTD/sodipodi-0.dtd"
   xmlns:inkscape="http://www.inkscape.org/namespaces/inkscape"
   width="455.65634"
   height="455.14859"
   id="svg3254"
   version="1.1"
   inkscape:version="0.48.2 r9819"
   sodipodi:docname="magnify-glass.svg"
   inkscape:export-filename="\\wgnhosvr1\private$\mholloway\workspace\greatwalks-builder\images\magnify-glass.png"
   inkscape:export-xdpi="11.864258"
   inkscape:export-ydpi="11.864258">
  <defs
     id="defs3256" />
  <sodipodi:namedview
     id="base"
     pagecolor="#ffffff"
     bordercolor="#666666"
     borderopacity="1.0"
     inkscape:pageopacity="0.0"
     inkscape:pageshadow="2"
     inkscape:zoom="0.175"
     inkscape:cx="706.79265"
     inkscape:cy="470.63237"
     inkscape:document-units="px"
     inkscape:current-layer="layer1"
     showgrid="false"
     fit-margin-top="0"
     fit-margin-left="0"
     fit-margin-right="0"
     fit-margin-bottom="0"
     inkscape:window-width="767"
     inkscape:window-height="569"
     inkscape:window-x="88"
     inkscape:window-y="116"
     inkscape:window-maximized="0" />
  <metadata
     id="metadata3259">
    <rdf:RDF>
      <cc:Work
         rdf:about="">
        <dc:format>image/svg+xml</dc:format>
        <dc:type
           rdf:resource="http://purl.org/dc/dcmitype/StillImage" />
        <dc:title></dc:title>
      </cc:Work>
    </rdf:RDF>
  </metadata>
  <g
     inkscape:label="Layer 1"
     inkscape:groupmode="layer"
     id="layer1"
     transform="translate(-160.74327,-347.64504)">
    <path
       style="fill:#000000;fill-opacity:1;stroke:none;opacity:0.67264574"
       d="m 623.17185,347.69138 -311.6343,0 c -82.36011,0 -148.47642,68.19644 -148.66446,152.90632 l -0.70124,315.9102 461,0 z"
       id="rect3274"
       inkscape:connector-curvature="0"
       sodipodi:nodetypes="cssccc" />
    <g
       id="g4045"
       transform="matrix(0.71143612,0,0,0.71143612,146.44206,203.08581)"
       style="fill:#ececec">
      <path
         style="fill:#ececec"
         id="path236"
         transform="translate(160.74327,347.64504)"
         d="m 284.65625,0 c -94.44,0 -171,76.559 -171,171 0,94.441 76.56,171 171,171 94.441,0 171,-76.559 171,-171 0,-94.441 -76.559,-171 -171,-171 z M 283.625,42.625 c 69.57348,0 125.96875,56.39527 125.96875,125.96875 0,69.57349 -56.39527,125.96875 -125.96875,125.96875 -69.57276,0 -125.96875,-56.39526 -125.96875,-125.96875 0,-69.57348 56.39599,-125.96875 125.96875,-125.96875 z"
         inkscape:connector-curvature="0" />
      <rect
         style="fill:#ececec"
         ry="0"
         id="rect238"
         height="77.463661"
         width="179.78548"
         transform="matrix(0.70710678,-0.70710678,-0.70710678,-0.70710678,0,0)"
         y="-720.0553"
         x="-415.26633" />
    </g>
  </g>
</svg>
