<?xml version="1.0" encoding="UTF-8" standalone="no"?>
<!-- Created with Inkscape (http://www.inkscape.org/) -->

<svg
   xmlns:dc="http://purl.org/dc/elements/1.1/"
   xmlns:cc="http://creativecommons.org/ns#"
   xmlns:rdf="http://www.w3.org/1999/02/22-rdf-syntax-ns#"
   xmlns:svg="http://www.w3.org/2000/svg"
   xmlns="http://www.w3.org/2000/svg"
   xmlns:sodipodi="http://sodipodi.sourceforge.net/DTD/sodipodi-0.dtd"
   xmlns:inkscape="http://www.inkscape.org/namespaces/inkscape"
   width="682.7829"
   height="167.06857"
   id="svg2"
   version="1.1"
   inkscape:version="0.48.2 r9819"
   sodipodi:docname="greatwalks.svg"
   inkscape:export-filename="\\wgnhosvr1\private$\mholloway\workspace\greatwalks-builder\images\banners\greatwalks.png"
   inkscape:export-xdpi="76.583641"
   inkscape:export-ydpi="76.583641">
  <defs
     id="defs4">
    <filter
       inkscape:collect="always"
       id="filter3835"
       color-interpolation-filters="sRGB">
      <feGaussianBlur
         inkscape:collect="always"
         stdDeviation="2.0678572"
         id="feGaussianBlur3837" />
    </filter>
    <clipPath
       clipPathUnits="userSpaceOnUse"
       id="clipPath2999">
      <path
         inkscape:connector-curvature="0"
         d="m 0,260.787 515.905,0 L 515.905,0 0,0 0,260.787 z"
         id="path3001" />
    </clipPath>
  </defs>
  <sodipodi:namedview
     id="base"
     pagecolor="#ffffff"
     bordercolor="#666666"
     borderopacity="1.0"
     inkscape:pageopacity="0.0"
     inkscape:pageshadow="2"
     inkscape:zoom="3.959798"
     inkscape:cx="575.09477"
     inkscape:cy="68.485402"
     inkscape:document-units="px"
     inkscape:current-layer="layer1"
     showgrid="false"
     fit-margin-top="0"
     fit-margin-left="0"
     fit-margin-right="0"
     fit-margin-bottom="0"
     inkscape:window-width="1280"
     inkscape:window-height="968"
     inkscape:window-x="-4"
     inkscape:window-y="-4"
     inkscape:window-maximized="1" />
  <metadata
     id="metadata7">
    <rdf:RDF>
      <cc:Work
         rdf:about="">
        <dc:format>image/svg+xml</dc:format>
        <dc:type
           rdf:resource="http://purl.org/dc/dcmitype/StillImage" />
        <dc:title />
      </cc:Work>
    </rdf:RDF>
  </metadata>
  <g
     inkscape:label="Layer 1"
     inkscape:groupmode="layer"
     id="layer1"
     transform="translate(-16.465707,-40.970774)">
    <rect
       style="opacity:0.264574;fill:#000000;fill-opacity:1;stroke:none;filter:url(#filter3835)"
       id="rect3833"
       width="672.85718"
       height="157.14285"
       x="21.428564"
       y="45.933632"
       transform="matrix(0.99254812,0,0,1,0.15968308,0)" />
    <rect
       y="43.790749"
       x="17.14286"
       height="154.28571"
       width="670"
       id="rect3827"
       style="fill:#000000;fill-opacity:1;stroke:none" />
    <g
       id="g4371"
       transform="matrix(0.99042274,0,0,0.99042274,-131.58741,2.7288757)">
      <path
         inkscape:connector-curvature="0"
         d="m 295.69003,103.68669 c 0,-14.359669 10.35764,-24.052369 22.77274,-24.052369 9.95945,0 16.59419,5.650467 16.59419,10.806865 0,2.926521 -1.78916,4.877278 -4.11492,4.877278 -2.45487,0 -4.24944,-1.737356 -4.24944,-4.250221 0,-1.046125 0.33324,-1.953076 0.8621,-2.511319 -1.52705,-1.530914 -4.71181,-3.137601 -9.29141,-3.137601 -9.56203,0 -16.3978,7.738077 -16.3978,18.194687 0,10.80687 7.36849,17.91325 15.73363,17.91325 4.77908,0 8.56075,-1.39097 11.94654,-3.76234 l 0,-8.9891 -11.61484,0 0,-5.37289 17.52819,0 0,22.93743 -5.77804,0 0,-3.6943 c -3.45306,2.71467 -7.57029,4.53012 -12.88288,4.53012 -10.88341,0 -21.10806,-8.85147 -21.10806,-23.48949"
         style="fill:#ffffff;fill-opacity:1;fill-rule:nonzero;stroke:none"
         id="path3009" />
      <path
         inkscape:connector-curvature="0"
         d="m 384.26782,120.69453 5.30949,0 0,-34.573154 -5.30949,0 0,-5.648147 32.06338,0 0,11.991391 -5.71,0 0,-6.416697 -15.00374,0 0,14.222817 13.80994,0 0,5.43784 -13.80994,-0.003 0,15.05477 15.00374,0.005 0,-6.41592 5.7765,0 0,11.99371 -32.12988,-0.003 0,-5.64583 z"
         style="fill:#ffffff;fill-opacity:1;fill-rule:nonzero;stroke:none"
         id="path3013" />
      <path
         inkscape:connector-curvature="0"
         d="m 451.06031,105.77817 -6.90381,-20.011682 -6.90458,20.011682 13.80839,0 z m -29.01315,14.91637 3.98656,0 12.14758,-34.646611 -4.84712,0 0,-5.574694 21.90986,0 0,5.574694 -4.91362,0 12.14912,34.646611 4.04997,0 0,5.64892 -15.53569,0 0,-5.57779 5.04583,0 -3.25435,-9.69038 -17.25991,0 -3.25203,9.69038 5.30949,0 0,5.57779 -15.53569,0 0,-5.64892 z"
         style="fill:#ffffff;fill-opacity:1;fill-rule:nonzero;stroke:none"
         id="path3017" />
      <path
         inkscape:connector-curvature="0"
         d="m 472.17881,120.69453 5.71155,0 0,-34.785781 -9.75842,0 0,7.318236 -5.71155,0 0,-12.753756 36.977,0 0,12.753756 -5.71,0 0,-7.318236 -9.75842,0 0,34.785781 5.70922,0 0,5.64892 -17.45938,0 0,-5.64892 z"
         style="fill:#ffffff;fill-opacity:1;fill-rule:nonzero;stroke:none"
         id="path3021" />
      <path
         inkscape:connector-curvature="0"
         d="m 300.26654,140.96585 -4.54171,0 0,-5.2948 15.87125,0 0,5.2948 -5.22908,0 7.77983,26.92322 10.20687,-27.51162 3.05178,0 10.20532,27.51162 7.46901,-26.92322 -5.41696,0 0,-5.2948 15.87048,0 0,5.2948 -4.60589,0 -11.26459,38.29065 -3.17394,0 -10.70249,-28.29331 -10.83238,28.29331 -3.23734,0 -11.45016,-38.29065 z"
         style="fill:#ffffff;fill-opacity:1;fill-rule:nonzero;stroke:none"
         id="path3025" />
      <path
         inkscape:connector-curvature="0"
         d="m 377.4435,159.39172 -6.47082,-18.75525 -6.47237,18.75525 12.94319,0 z m -27.1977,13.98313 3.7345,0 11.3914,-32.4755 -4.54404,0 0,-5.2283 20.53591,0 0,5.2283 -4.6028,0 11.39063,32.4755 3.79404,0 0,5.29712 -14.56225,0 0,-5.22908 4.72651,0 -3.0456,-9.08266 -16.18362,0 -3.04946,9.08266 4.97857,0 0,5.22908 -14.56379,0 0,-5.29712 z"
         style="fill:#ffffff;fill-opacity:1;fill-rule:nonzero;stroke:none"
         id="path3029" />
      <path
         inkscape:connector-curvature="0"
         d="m 397.23985,173.37485 4.97779,0 0,-32.409 -4.97779,0 0,-5.2948 16.18362,0 0,5.2948 -5.54067,0 0,32.47704 12.94551,0 0,-6.33938 5.41387,0 0,11.56846 -29.00233,0 0,-5.29712 z"
         style="fill:#ffffff;fill-opacity:1;fill-rule:nonzero;stroke:none"
         id="path3033" />
      <path
         inkscape:connector-curvature="0"
         d="m 431.53651,173.37786 4.97779,0 0,-32.41209 -4.97779,0 0,-5.29403 15.86971,0 0,5.16413 -5.22599,0 0,16.98542 16.05682,-16.98542 -5.16568,0 0,-5.16413 16.80295,0 0,5.29403 -4.54326,0 -12.51097,13.00504 11.95273,19.40705 5.22753,0 0,5.29403 -8.8391,0 -12.57437,-20.71606 -6.40665,6.66566 0,8.75637 5.22599,0 0,5.29403 -15.86971,0 0,-5.29403 z"
         style="fill:#ffffff;fill-opacity:1;fill-rule:nonzero;stroke:none"
         id="path3037" />
      <path
         inkscape:connector-curvature="0"
         d="m 471.54835,170.04503 c 0,-2.74482 1.55411,-4.50924 3.73373,-4.50924 2.24148,0 3.73373,1.76442 3.73373,3.59456 0,1.17447 -0.3085,2.02498 -0.80566,2.80899 1.42731,1.30901 4.16826,2.28632 7.46591,2.28632 4.97934,0 8.15251,-2.54843 8.15251,-6.79401 0,-4.05074 -3.73373,-5.94505 -8.09143,-7.64607 -7.34297,-2.87239 -12.63468,-5.49119 -12.63468,-13.13339 0,-6.73448 5.10769,-11.7633 13.01045,-11.7633 7.15742,0 12.7584,4.04842 12.7584,8.82132 0,2.68142 -1.61983,4.24635 -3.61002,4.24635 -2.36673,0 -3.79868,-1.83091 -3.79868,-3.7894 0,-1.04458 0.31237,-1.69869 0.68814,-2.28555 -1.12267,-1.04535 -3.54585,-1.83091 -6.10124,-1.83091 -4.54558,0 -7.28189,2.54843 -7.28189,6.14299 0,4.11646 3.6711,5.88242 8.34039,7.77751 7.0337,2.74328 12.32154,5.42083 12.32154,13.0004 0,7.84246 -5.85227,12.48623 -13.87874,12.48623 -8.02725,0 -14.00246,-4.77366 -14.00246,-9.4128"
         style="fill:#ffffff;fill-opacity:1;fill-rule:nonzero;stroke:none"
         id="path3041" />
      <path
         inkscape:connector-curvature="0"
         d="m 368.12518,94.206772 c 0,-5.367479 -4.17986,-8.085239 -10.61975,-8.085239 l -5.04893,0 0,16.587997 c 1.13272,0.0665 2.659,0.13995 4.84635,0.13995 6.24118,0 10.82233,-3.136828 10.82233,-8.642708 m -27.01678,26.487918 5.31027,0 0,-34.573157 -5.31027,0 0,-5.648147 16.72872,0 c 9.82492,0 16.46352,4.811556 16.46352,13.520759 0,6.134485 -3.71749,10.595785 -8.89786,12.549635 l 8.1007,14.15091 5.11465,0 0,5.64582 -9.22956,0 -9.89295,-18.19391 c -0.86211,0.068 -1.72654,0.13763 -2.59019,0.13763 -1.59045,0 -3.31621,-0.0696 -4.44893,-0.13763 l 0,12.54809 5.57933,0 0,5.64582 -16.92743,0 0,-5.64582 z"
         style="fill:#ffffff;fill-opacity:1;fill-rule:nonzero;stroke:none"
         id="path3045" />
      <path
         inkscape:connector-curvature="0"
         d="m 183.00908,60.245365 0,69.532905 c 0,27.00827 21.8944,48.90112 48.90344,48.90112 27.00518,0 48.90886,-21.89285 48.90886,-48.90112 l 0.10902,-69.531359 -97.92132,-0.0015 z"
         style="fill:#ffffff;fill-opacity:1;fill-rule:nonzero;stroke:none"
         id="path3049" />
      <path
         inkscape:connector-curvature="0"
         d="m 183.00908,60.245365 0,69.532905 c 0,27.00827 21.8944,48.90112 48.90344,48.90112 27.00518,0 48.90886,-21.89285 48.90886,-48.90112 l 0.10902,-69.531359 -97.92132,-0.0015 z"
         style="fill:#ffffff;fill-opacity:1;fill-rule:nonzero;stroke:none"
         id="path3053" />
      <path
         inkscape:connector-curvature="0"
         d="m 267.3003,129.7025 c 0,21.30677 -18.5318,35.00459 -35.60381,35.00459 -19.71788,0 -35.35253,-15.98259 -35.35253,-35.70046 0,-15.30837 12.60453,-27.51007 28.04743,-27.51007 10.45816,0 18.51866,5.61258 23.50186,12.90221 -6.7569,1.66003 -11.55686,8.13627 -11.55686,14.60786 0,8.53833 6.99195,15.06482 14.46869,15.06482 6.91077,0 14.31483,-3.37188 15.85502,-14.37359 l 0.6402,0.005 z"
         style="fill:#549433;fill-opacity:1;fill-rule:nonzero;stroke:none"
         id="path3057" />
      <path
         inkscape:connector-curvature="0"
         d="m 195.90564,73.543601 -0.0209,24.181491 c 7.55638,-6.932414 17.63645,-11.168717 28.70001,-11.168717 21.25575,0 42.11639,18.936945 42.11639,41.777735 l 0.59922,0 0,-54.78587 -71.39474,-0.0046 z"
         style="fill:#0099d8;fill-opacity:1;fill-rule:nonzero;stroke:none"
         id="path3061" />
      <path
         inkscape:connector-curvature="0"
         d="m 299.97056,69.804535 c 3.0657,0 4.63836,-1.689418 4.63836,-4.225479 0,-2.517504 -1.85643,-3.989656 -4.77289,-3.989656 l -1.22474,0 0,8.215135 1.35927,0 z m -4.193,0 1.32679,0 0,-8.215135 -1.32679,0 0,-1.343803 4.0948,0 c 3.87368,0 6.27753,2.086838 6.27753,5.352016 0,3.295332 -2.26931,5.547632 -6.37727,5.547632 l -3.99506,0 0,-1.34071 z"
         style="fill:#ffbb22;fill-opacity:1;fill-rule:nonzero;stroke:none"
         id="path3065" />
      <path
         inkscape:connector-curvature="0"
         d="m 309.13479,66.972266 3.99198,0 c -0.0665,-1.143547 -0.76392,-1.922921 -1.97164,-1.922921 -0.96107,0 -1.83864,0.630922 -2.02034,1.922921 m 0,1.061589 c 0.19871,1.35772 1.19458,2.018797 2.58632,2.018797 0.90772,0 1.68864,-0.281441 2.53297,-0.762365 l -0.11676,1.309009 c -0.74612,0.466233 -1.65539,0.679634 -2.63425,0.679634 -2.30101,0 -3.86131,-1.489163 -3.86131,-3.678061 0,-2.003333 1.37782,-3.728318 3.54662,-3.728318 2.20282,0 3.36415,1.57344 3.36415,3.399712 0,0.261338 -0.0348,0.545099 -0.068,0.761592 l -5.3497,0 z"
         style="fill:#ffbb22;fill-opacity:1;fill-rule:nonzero;stroke:none"
         id="path3069" />
      <path
         inkscape:connector-curvature="0"
         d="m 322.13179,67.552931 c 0,-1.492255 -0.9085,-2.435546 -2.1224,-2.435546 -0.80953,0 -1.42345,0.378863 -1.95308,0.910044 l 0,3.328579 c 0.49716,0.397419 1.12731,0.679633 1.92292,0.679633 1.20695,0 2.15256,-0.977311 2.15256,-2.48271 m -6.61077,5.648147 1.11108,0 0,-7.967715 -1.11108,0 0,-1.226278 2.47112,0 0,0.925508 c 0.5938,-0.611593 1.25643,-1.060042 2.284,-1.060042 2.16647,0 3.32935,1.490708 3.32935,3.66105 0,2.056683 -1.43891,3.745329 -3.4608,3.745329 -0.81262,0 -1.5255,-0.299225 -2.08838,-0.763138 l 0,2.685286 1.27576,0 0,1.192258 -3.81105,0 0,-1.192258 z"
         style="fill:#ffbb22;fill-opacity:1;fill-rule:nonzero;stroke:none"
         id="path3073" />
      <path
         inkscape:connector-curvature="0"
         d="m 329.57219,69.356008 0,-1.157464 c -0.48092,-0.132216 -1.09329,-0.246648 -1.73968,-0.246648 -1.01133,0 -1.57344,0.480151 -1.57344,1.172155 0,0.64716 0.48015,1.077826 1.30901,1.077826 0.76391,0 1.45824,-0.362626 2.00411,-0.845869 m -4.75357,-0.115978 c 0,-1.30901 1.15824,-2.152559 2.79895,-2.152559 0.74613,0 1.57421,0.166236 1.95462,0.282987 l 0,-0.814168 c 0,-0.41211 -0.11675,-0.744581 -0.31701,-0.992002 -0.29613,-0.364172 -0.79484,-0.548191 -1.48839,-0.548191 -0.44767,0 -0.71365,0.101288 -0.92782,0.217266 0.0479,0.114432 0.0827,0.262885 0.0827,0.39742 0,0.462367 -0.34716,0.811848 -0.82886,0.811848 -0.49716,0 -0.84587,-0.349481 -0.84587,-0.845096 0,-0.845869 0.92937,-1.724985 2.75178,-1.724985 1.10953,0 1.92369,0.330925 2.40075,0.896127 0.36417,0.431439 0.54665,0.992001 0.54665,1.636841 l 0,3.546619 1.1103,0 0,1.193031 -2.45024,0 0,-0.862879 c -0.57989,0.548191 -1.49148,0.99664 -2.45256,0.99664 -1.30823,0 -2.33503,-0.747673 -2.33503,-2.038899"
         style="fill:#ffbb22;fill-opacity:1;fill-rule:nonzero;stroke:none"
         id="path3077" />
      <path
         inkscape:connector-curvature="0"
         d="m 338.77499,64.91767 c 0,0.512624 -0.41366,0.958755 -0.91159,0.958755 -0.48092,0 -0.81185,-0.297678 -0.94406,-0.611593 -0.53041,0.165462 -1.142,0.763138 -1.48994,1.441998 l 0,3.245848 1.30669,0 0,1.193031 -3.82574,0 0,-1.193031 1.10953,0 0,-4.719547 -1.10953,0 0,-1.226278 2.46879,0 0,1.623697 c 0.56443,-0.97963 1.39174,-1.758232 2.21983,-1.758232 0.7786,0 1.17602,0.481697 1.17602,1.045352"
         style="fill:#ffbb22;fill-opacity:1;fill-rule:nonzero;stroke:none"
         id="path3081" />
      <path
         inkscape:connector-curvature="0"
         d="m 340.85742,70.385123 c -0.13299,-0.282987 -0.21417,-0.648706 -0.21417,-1.044579 l 0,-4.10718 -1.34149,0 0,-1.226278 1.34149,0 0,-1.641481 1.42344,-0.579892 0,2.221373 2.16957,0 0,1.226278 -2.16957,0 0,3.858214 c 0,0.232729 0.0317,0.398192 0.10051,0.546644 0.13067,0.234277 0.39819,0.348709 0.80953,0.348709 0.43221,0 0.94639,-0.197937 1.36159,-0.396646 l -0.15,1.274215 c -0.4152,0.2134 -0.94638,0.41443 -1.60746,0.41443 -0.79484,0 -1.40798,-0.281441 -1.72344,-0.893807"
         style="fill:#ffbb22;fill-opacity:1;fill-rule:nonzero;stroke:none"
         id="path3085" />
      <path
         inkscape:connector-curvature="0"
         d="m 345.35615,69.952524 1.10875,0 0,-4.719547 -1.10875,0 0,-1.225505 2.46725,0 0,1.240969 c 0.59845,-0.693551 1.47601,-1.375503 2.51905,-1.375503 0.82886,0 1.39096,0.317007 1.73967,0.811075 0.099,0.150772 0.16392,0.313915 0.2165,0.497934 0.72834,-0.729118 1.60746,-1.309009 2.51827,-1.309009 1.02602,0 1.6554,0.380409 1.98633,1.026795 0.18247,0.381955 0.28066,0.845869 0.28066,1.359266 l 0,3.693525 1.1103,0 0,1.193031 -3.59455,0 0,-1.193031 1.06236,0 0,-3.378063 c 0,-0.332472 -0.0518,-0.597676 -0.13531,-0.814169 -0.16624,-0.397419 -0.49484,-0.578345 -1.00978,-0.578345 -0.7299,0 -1.40798,0.431439 -2.03658,1.045352 l 0,3.725225 1.04303,0 0,1.193031 -3.52806,0 0,-1.193031 1.05849,0 0,-3.378063 c 0,-0.332472 -0.0325,-0.597676 -0.11598,-0.814169 -0.18247,-0.397419 -0.49716,-0.578345 -1.01056,-0.578345 -0.76159,0 -1.44122,0.46546 -2.05359,1.060042 l 0,3.710535 1.04381,0 0,1.193031 -3.56131,0 0,-1.193031 z"
         style="fill:#ffbb22;fill-opacity:1;fill-rule:nonzero;stroke:none"
         id="path3089" />
      <path
         inkscape:connector-curvature="0"
         d="m 360.533,66.972266 3.99198,0 c -0.0642,-1.143547 -0.76005,-1.922921 -1.96854,-1.922921 -0.96185,0 -1.83942,0.630922 -2.02344,1.922921 m 0,1.061589 c 0.20103,1.35772 1.19303,2.018797 2.58709,2.018797 0.91004,0 1.68942,-0.281441 2.53374,-0.762365 l -0.11598,1.309009 c -0.74767,0.466233 -1.65539,0.679634 -2.63503,0.679634 -2.30178,0 -3.85898,-1.489163 -3.85898,-3.678061 0,-2.003333 1.37627,-3.728318 3.54584,-3.728318 2.2005,0 3.36183,1.57344 3.36183,3.399712 0,0.261338 -0.0317,0.545099 -0.065,0.761592 l -5.35356,0 z"
         style="fill:#ffbb22;fill-opacity:1;fill-rule:nonzero;stroke:none"
         id="path3093" />
      <path
         inkscape:connector-curvature="0"
         d="m 369.63158,65.248441 c 0.68041,-0.728344 1.57344,-1.375504 2.60024,-1.375504 0.89535,0 1.50771,0.348709 1.87266,0.91159 0.2335,0.39742 0.14536,0.896127 0.14536,1.489163 l 0,3.678834 1.10953,0 0,1.193031 -3.37343,0 0,-1.193031 1.0585,0 0,-3.363373 c 0,-0.347162 -0.0503,-0.627056 -0.16779,-0.843549 -0.19793,-0.382729 -0.54587,-0.563655 -1.05849,-0.563655 -0.78092,0 -1.52318,0.46546 -2.1371,1.077052 l 0,3.693525 1.06082,0 0,1.193031 -3.57832,0 0,-1.193031 1.1103,0 0,-4.719547 -1.1103,0 0,-1.225505 2.46802,0 0,1.240969 z"
         style="fill:#ffbb22;fill-opacity:1;fill-rule:nonzero;stroke:none"
         id="path3097" />
      <path
         inkscape:connector-curvature="0"
         d="m 377.37407,70.385123 c -0.13453,-0.282987 -0.21727,-0.648706 -0.21727,-1.044579 l 0,-4.10718 -1.34071,0 0,-1.226278 1.34071,0 0,-1.641481 1.42808,-0.579892 0,2.221373 2.16648,0 0,1.226278 -2.16648,0 0,3.858214 c 0,0.232729 0.0302,0.398192 0.0951,0.546644 0.13608,0.234277 0.39819,0.348709 0.81185,0.348709 0.43143,0 0.94483,-0.197937 1.36003,-0.396646 l -0.14999,1.274215 c -0.41366,0.2134 -0.94329,0.41443 -1.60437,0.41443 -0.79716,0 -1.41107,-0.281441 -1.72344,-0.893807"
         style="fill:#ffbb22;fill-opacity:1;fill-rule:nonzero;stroke:none"
         id="path3101" />
      <path
         inkscape:connector-curvature="0"
         d="m 391.72183,67.586101 c 0,-1.460554 -0.92705,-2.505133 -2.25153,-2.505133 -1.34303,0 -2.27163,1.044579 -2.27163,2.505133 0,1.457462 0.9286,2.48271 2.27163,2.48271 1.32448,0 2.25153,-1.025248 2.25153,-2.48271 m -5.9783,0 c 0,-2.007199 1.45514,-3.713628 3.72677,-3.713628 2.26777,0 3.72523,1.691738 3.72523,3.713628 0,1.986323 -1.4737,3.692751 -3.72523,3.692751 -2.28786,0 -3.72677,-1.688645 -3.72677,-3.692751"
         style="fill:#ffbb22;fill-opacity:1;fill-rule:nonzero;stroke:none"
         id="path3105" />
      <path
         inkscape:connector-curvature="0"
         d="m 397.9194,60.14717 c -0.17938,0.04716 -0.34639,0.166236 -0.4786,0.313915 -0.23119,0.313141 -0.36572,0.763911 -0.36572,1.458235 l 0,2.08761 1.85797,0 0,1.226278 -1.85797,0 0,4.719547 1.39251,0 0,1.193031 -3.91156,0 0,-1.193031 1.1103,0 0,-4.719547 -1.24175,0 0,-1.226278 1.24175,0 0,-1.823953 c 0,-1.208495 0.21649,-2.004106 0.8304,-2.600235 0.44691,-0.450769 1.02757,-0.696644 1.77138,-0.696644 0.82886,0 1.42576,0.413657 1.42576,1.061589 0,0.546645 -0.38041,0.879116 -0.82886,0.879116 -0.49561,0 -0.79484,-0.299224 -0.94561,-0.679633"
         style="fill:#ffbb22;fill-opacity:1;fill-rule:nonzero;stroke:none"
         id="path3109" />
      <path
         inkscape:connector-curvature="0"
         d="m 403.85425,65.728668 c 0,-3.331672 2.56776,-5.68294 5.61413,-5.68294 2.38683,0 4.14197,1.359266 4.14197,2.669822 0,0.691231 -0.46159,1.175247 -1.05927,1.175247 -0.61236,0 -1.05927,-0.398192 -1.05927,-0.995094 0,-0.281441 0.13222,-0.513398 0.2799,-0.629376 -0.29536,-0.364172 -1.10953,-0.845869 -2.33503,-0.845869 -2.33581,0 -4.04069,1.923695 -4.04069,4.292746 0,2.268537 1.65617,4.25718 4.12574,4.25718 1.29122,0 2.35126,-0.529635 3.26131,-1.424988 l 0.94716,1.044579 c -1.07938,1.12499 -2.6188,1.755139 -4.20847,1.755139 -3.36492,0 -5.66748,-2.451783 -5.66748,-5.616446"
         style="fill:#ffbb22;fill-opacity:1;fill-rule:nonzero;stroke:none"
         id="path3113" />
      <path
         inkscape:connector-curvature="0"
         d="m 420.88861,67.586101 c 0,-1.460554 -0.9286,-2.505133 -2.25307,-2.505133 -1.34303,0 -2.27163,1.044579 -2.27163,2.505133 0,1.457462 0.9286,2.48271 2.27163,2.48271 1.32447,0 2.25307,-1.025248 2.25307,-2.48271 m -5.98139,0 c 0,-2.007199 1.45669,-3.713628 3.72832,-3.713628 2.26853,0 3.726,1.691738 3.726,3.713628 0,1.986323 -1.47293,3.692751 -3.726,3.692751 -2.28632,0 -3.72832,-1.688645 -3.72832,-3.692751"
         style="fill:#ffbb22;fill-opacity:1;fill-rule:nonzero;stroke:none"
         id="path3117" />
      <path
         inkscape:connector-curvature="0"
         d="m 426.09171,65.248441 c 0.68041,-0.728344 1.57421,-1.375504 2.60101,-1.375504 0.89612,0 1.50849,0.348709 1.87266,0.91159 0.23196,0.39742 0.36417,0.896127 0.36417,1.489163 l 0,3.678834 1.1103,0 0,1.193031 -3.59301,0 0,-1.193031 1.06005,0 0,-3.363373 c 0,-0.347162 -0.051,-0.627056 -0.16856,-0.843549 -0.19639,-0.382729 -0.54587,-0.563655 -1.06081,-0.563655 -0.77551,0 -1.52241,0.46546 -2.13555,1.077052 l 0,3.693525 1.06081,0 0,1.193031 -3.57832,0 0,-1.193031 1.1103,0 0,-4.719547 -1.1103,0 0,-1.225505 2.46725,0 0,1.240969 z"
         style="fill:#ffbb22;fill-opacity:1;fill-rule:nonzero;stroke:none"
         id="path3121" />
      <path
         inkscape:connector-curvature="0"
         d="m 437.92444,66.34173 c -0.49871,0 -0.86365,-0.313915 -0.86365,-0.794838 0,-0.116752 0.0162,-0.250514 0.0673,-0.364946 -0.28299,-0.132988 -0.69588,-0.216493 -1.14278,-0.216493 -0.91236,0 -1.40875,0.44845 -1.40875,0.910817 0,0.528862 0.54587,0.747674 1.68942,1.045352 1.54097,0.398192 2.6675,0.812622 2.6675,2.154878 0,1.422668 -1.36004,2.217507 -2.91647,2.217507 -1.0755,0 -2.16879,-0.364172 -2.65049,-0.84355 -0.2652,-0.26443 -0.39665,-0.562881 -0.39665,-0.9286 0,-0.46314 0.3317,-0.860559 0.81263,-0.860559 0.46004,0 0.84355,0.313914 0.84355,0.828085 0,0.133762 -0.0162,0.247421 -0.0665,0.364945 0.26443,0.166236 0.79639,0.331699 1.45746,0.331699 0.86211,0 1.55643,-0.331699 1.55643,-0.961075 0,-0.51417 -0.51262,-0.760045 -1.57266,-1.026795 -1.82164,-0.463913 -2.79972,-0.913909 -2.79972,-2.188125 0,-1.092516 0.97808,-2.137095 2.79972,-2.137095 0.92782,0 1.85565,0.295358 2.32111,0.763138 0.24665,0.248193 0.3634,0.545871 0.3634,0.859786 0,0.514171 -0.31778,0.845869 -0.76082,0.845869"
         style="fill:#ffbb22;fill-opacity:1;fill-rule:nonzero;stroke:none"
         id="path3125" />
      <path
         inkscape:connector-curvature="0"
         d="m 441.59098,66.972266 3.99275,0 c -0.0665,-1.143547 -0.76082,-1.922921 -1.97086,-1.922921 -0.9603,0 -1.83942,0.630922 -2.02189,1.922921 m 0,1.061589 c 0.19948,1.35772 1.19303,2.018797 2.58709,2.018797 0.91004,0 1.68942,-0.281441 2.53374,-0.762365 l -0.11675,1.309009 c -0.74535,0.466233 -1.6554,0.679634 -2.63271,0.679634 -2.30256,0 -3.86208,-1.489163 -3.86208,-3.678061 0,-2.003333 1.37628,-3.728318 3.54585,-3.728318 2.20359,0 3.36105,1.57344 3.36105,3.399712 0,0.261338 -0.0301,0.545099 -0.0642,0.761592 l -5.35202,0 z"
         style="fill:#ffbb22;fill-opacity:1;fill-rule:nonzero;stroke:none"
         id="path3129" />
      <path
         inkscape:connector-curvature="0"
         d="m 453.97562,64.91767 c 0,0.512624 -0.41211,0.958755 -0.91082,0.958755 -0.48015,0 -0.81107,-0.297678 -0.94329,-0.611593 -0.53195,0.165462 -1.14354,0.763138 -1.49225,1.441998 l 0,3.245848 1.30901,0 0,1.193031 -3.82652,0 0,-1.193031 1.11108,0 0,-4.719547 -1.11108,0 0,-1.226278 2.46725,0 0,1.623697 c 0.5652,-0.97963 1.39251,-1.758232 2.2206,-1.758232 0.7786,0 1.17602,0.481697 1.17602,1.045352"
         style="fill:#ffbb22;fill-opacity:1;fill-rule:nonzero;stroke:none"
         id="path3133" />
      <path
         inkscape:connector-curvature="0"
         d="m 455.38909,65.233363 -0.89226,0 0,-1.226278 3.45925,0 0,1.175248 -1.08943,0 1.93839,4.291973 1.93684,-4.291973 -1.14277,0 0,-1.175248 3.46156,0 0,1.226278 -0.89226,0 -2.93425,6.111287 -0.91236,0 -2.93271,-6.111287 z"
         style="fill:#ffbb22;fill-opacity:1;fill-rule:nonzero;stroke:none"
         id="path3137" />
      <path
         inkscape:connector-curvature="0"
         d="m 468.11122,69.356008 0,-1.157464 c -0.48092,-0.132216 -1.09252,-0.246648 -1.73736,-0.246648 -1.0121,0 -1.57653,0.480151 -1.57653,1.172155 0,0.64716 0.48092,1.077826 1.30901,1.077826 0.76391,0 1.45978,-0.362626 2.00488,-0.845869 m -4.75279,-0.115978 c 0,-1.30901 1.15978,-2.152559 2.79817,-2.152559 0.74613,0 1.57266,0.166236 1.95462,0.282987 l 0,-0.814168 c 0,-0.41211 -0.11675,-0.744581 -0.31469,-0.992002 -0.29922,-0.364172 -0.79638,-0.548191 -1.49071,-0.548191 -0.4469,0 -0.71133,0.101288 -0.9286,0.217266 0.0495,0.114432 0.0843,0.262885 0.0843,0.39742 0,0.462367 -0.34871,0.811848 -0.8304,0.811848 -0.49717,0 -0.84433,-0.349481 -0.84433,-0.845096 0,-0.845869 0.9286,-1.724985 2.75101,-1.724985 1.1103,0 1.92138,0.330925 2.40075,0.896127 0.36495,0.431439 0.54897,0.992001 0.54897,1.636841 l 0,3.546619 1.10952,0 0,1.193031 -2.45178,0 0,-0.862879 c -0.57912,0.548191 -1.49225,0.99664 -2.45333,0.99664 -1.30823,0 -2.33348,-0.747673 -2.33348,-2.038899"
         style="fill:#ffbb22;fill-opacity:1;fill-rule:nonzero;stroke:none"
         id="path3141" />
      <path
         inkscape:connector-curvature="0"
         d="M 472.60917,70.385123 C 472.4785,70.102136 472.395,69.736417 472.395,69.340544 l 0,-4.10718 -1.34226,0 0,-1.226278 1.34226,0 0,-1.641481 1.42266,-0.579892 0,2.221373 2.17112,0 0,1.226278 -2.17112,0 0,3.858214 c 0,0.232729 0.0356,0.398192 0.10052,0.546644 0.13299,0.234277 0.39896,0.348709 0.81107,0.348709 0.43222,0 0.94407,-0.197937 1.35927,-0.396646 l -0.14845,1.274215 c -0.4152,0.2134 -0.94484,0.41443 -1.60746,0.41443 -0.79484,0 -1.40798,-0.281441 -1.72344,-0.893807"
         style="fill:#ffbb22;fill-opacity:1;fill-rule:nonzero;stroke:none"
         id="path3145" />
      <path
         inkscape:connector-curvature="0"
         d="m 478.13329,61.454247 c 0,-0.562882 0.48092,-1.026022 1.04303,-1.026022 0.54587,0 1.02757,0.46314 1.02757,1.026022 0,0.581438 -0.49871,1.044579 -1.0438,1.044579 -0.56366,0 -1.0268,-0.463141 -1.0268,-1.044579 m -0.67809,8.498122 1.15901,0 0,-4.718773 -1.15901,0 0,-1.226278 2.584,0 0,5.945051 1.14277,0 0,1.193031 -3.72677,0 0,-1.193031 z"
         style="fill:#ffbb22;fill-opacity:1;fill-rule:nonzero;stroke:none"
         id="path3149" />
      <path
         inkscape:connector-curvature="0"
         d="m 488.15298,67.586101 c 0,-1.460554 -0.9286,-2.505133 -2.25617,-2.505133 -1.33993,0 -2.26853,1.044579 -2.26853,2.505133 0,1.457462 0.9286,2.48271 2.26853,2.48271 1.32757,0 2.25617,-1.025248 2.25617,-2.48271 m -5.98139,0 c 0,-2.007199 1.45669,-3.713628 3.72522,-3.713628 2.27241,0 3.72832,1.691738 3.72832,3.713628 0,1.986323 -1.47215,3.692751 -3.72832,3.692751 -2.28322,0 -3.72522,-1.688645 -3.72522,-3.692751"
         style="fill:#ffbb22;fill-opacity:1;fill-rule:nonzero;stroke:none"
         id="path3153" />
      <path
         inkscape:connector-curvature="0"
         d="m 493.35615,65.248441 c 0.68041,-0.728344 1.57421,-1.375504 2.60255,-1.375504 0.89304,0 1.5054,0.348709 1.87112,0.91159 0.23119,0.39742 0.36572,0.896127 0.36572,1.489163 l 0,3.678834 1.10798,0 0,1.193031 -3.59378,0 0,-1.193031 1.06004,0 0,-3.363373 c 0,-0.347162 -0.0495,-0.627056 -0.16624,-0.843549 -0.19948,-0.382729 -0.54664,-0.563655 -1.05849,-0.563655 -0.78092,0 -1.52782,0.46546 -2.13787,1.077052 l 0,3.693525 1.06004,0 0,1.193031 -3.57832,0 0,-1.193031 1.1103,0 0,-4.719547 -1.1103,0 0,-1.225505 2.46725,0 0,1.240969 z"
         style="fill:#ffbb22;fill-opacity:1;fill-rule:nonzero;stroke:none"
         id="path3157" />
    </g>
  </g>
</svg>
